<?xml version="1.0" standalone="no"?>
<!DOCTYPE svg PUBLIC "-//W3C//DTD SVG 1.1//EN" "http://www.w3.org/Graphics/SVG/1.1/DTD/svg11.dtd">
<!--Generator: Xara Designer (www.xara.com), SVG filter version: 5.0.0.2-->
<svg stroke-width="0.501" stroke-linejoin="bevel" fill-rule="evenodd" xmlns:xlink="http://www.w3.org/1999/xlink" xmlns="http://www.w3.org/2000/svg" version="1.1" overflow="visible" width="213.75pt" height="32.25pt" viewBox="0 0 213.75 32.25">
 <defs>
  <marker id="DefaultArrow2" markerUnits="strokeWidth" viewBox="0 0 1 1" markerWidth="1" markerHeight="1" overflow="visible" orient="auto">
   <!-- REF_ARROW_STRAIGHT (-2) -->
   <g transform="scale(0.0092592592)">
    <!-- 1/108 -->
    <path d="M -9 54 L -9 -54 L 117 0 z"/>
   </g>
  </marker>
  <marker id="DefaultArrow3" markerUnits="strokeWidth" viewBox="0 0 1 1" markerWidth="1" markerHeight="1" overflow="visible" orient="auto">
   <!-- REF_ARROW_ANGLED -->
   <g transform="scale(0.0092592592)">
    <path d="M -27 54 L -9 0 L -27 -54 L 135 0 z"/>
   </g>
  </marker>
  <marker id="DefaultArrow4" markerUnits="strokeWidth" viewBox="0 0 1 1" markerWidth="1" markerHeight="1" overflow="visible" orient="auto">
   <!-- REF_ARROW_ROUNDED -->
   <g transform="scale(0.0092592592)">
    <path d="M -9,0 L -9,-45 C -9,-51.708 2.808,-56.580 9,-54 L 117,-9 C 120.916,-7.369 126.000,-4.242 126,0 C 126,4.242 120.916,7.369 117,9 L 9,54 C 2.808,56.580 -9,51.708 -9,45 z"/>
   </g>
  </marker>
  <marker id="DefaultArrow5" markerUnits="strokeWidth" viewBox="0 0 1 1" markerWidth="1" markerHeight="1" overflow="visible" orient="auto">
   <!-- REF_ARROW_SPOT -->
   <g transform="scale(0.0092592592)">
    <path d="M -54, 0 C -54,29.807 -29.807,54 0,54 C 29.807,54 54,29.807 54,0 C 54,-29.807 29.807,-54 0,-54 C -29.807,-54 -54,-29.807 -54,0 z"/>
   </g>
  </marker>
  <marker id="DefaultArrow6" markerUnits="strokeWidth" viewBox="0 0 1 1" markerWidth="1" markerHeight="1" overflow="visible" orient="auto">
   <!-- REF_ARROW_DIAMOND -->
   <g transform="scale(0.0092592592)">
    <path d="M -63,0 L 0,63 L 63,0 L 0,-63 z"/>
   </g>
  </marker>
  <marker id="DefaultArrow7" markerUnits="strokeWidth" viewBox="0 0 1 1" markerWidth="1" markerHeight="1" overflow="visible" orient="auto">
   <!-- REF_ARROW_FEATHER -->
   <g transform="scale(0.0092592592)">
    <path d="M 18,-54 L 108,-54 L 63,0 L 108,54 L 18, 54 L -36,0 z"/>
   </g>
  </marker>
  <marker id="DefaultArrow8" markerUnits="strokeWidth" viewBox="0 0 1 1" markerWidth="1" markerHeight="1" overflow="visible" orient="auto">
   <!-- REF_ARROW_FEATHER2 -->
   <g transform="scale(0.0092592592)">
    <path d="M -36,0 L 18,-54 L 54,-54 L 18,-18 L 27,-18 L 63,-54 L 99,-54 L 63,-18 L 72,-18 L 108,-54 L 144,-54 L 90,0 L 144,54 L 108,54 L 72,18 L 63,18 L 99,54 L 63,54 L 27,18 L 18,18 L 54,54 L 18,54 z"/>
   </g>
  </marker>
  <marker id="DefaultArrow9" markerUnits="strokeWidth" viewBox="0 0 1 1" markerWidth="1" markerHeight="1" overflow="visible" orient="auto">
   <!-- REF_ARROW_HOLLOWDIAMOND -->
   <g transform="scale(0.0092592592)">
    <path d="M 0,45 L -45,0 L 0, -45 L 45, 0 z M 0, 63 L-63, 0 L 0, -63 L 63, 0 z"/>
   </g>
  </marker>
  <filter id="StainedFilter">
   <feBlend mode="multiply" in2="BackgroundImage" in="SourceGraphic" result="blend"/>
   <feComposite in="blend" in2="SourceAlpha" operator="in" result="comp"/>
  </filter>
  <filter id="BleachFilter">
   <feBlend mode="screen" in2="BackgroundImage" in="SourceGraphic" result="blend"/>
   <feComposite in="blend" in2="SourceAlpha" operator="in" result="comp"/>
  </filter>
  <filter id="InvertTransparencyBitmapFilter">
   <feComponentTransfer>
    <feFuncR type="gamma" amplitude="1.055" exponent=".416666666" offset="-0.055"/>
    <feFuncG type="gamma" amplitude="1.055" exponent=".416666666" offset="-0.055"/>
    <feFuncB type="gamma" amplitude="1.055" exponent=".416666666" offset="-0.055"/>
   </feComponentTransfer>
   <feComponentTransfer>
    <feFuncR type="linear" slope="-1" intercept="1"/>
    <feFuncG type="linear" slope="-1" intercept="1"/>
    <feFuncB type="linear" slope="-1" intercept="1"/>
    <feFuncA type="linear" slope="1" intercept="0"/>
   </feComponentTransfer>
   <feComponentTransfer>
    <feFuncR type="gamma" amplitude="1" exponent="2.4" offset="0"/>
    <feFuncG type="gamma" amplitude="1" exponent="2.4" offset="0"/>
    <feFuncB type="gamma" amplitude="1" exponent="2.4" offset="0"/>
   </feComponentTransfer>
  </filter>
  <linearGradient id="LinearGradient" gradientUnits="userSpaceOnUse" x1="0" y1="0" x2="54.75" y2="-74.25" gradientTransform="translate(912.75 1349.25)">
   <stop offset="0" stop-color="#df4b8e"/>
   <stop offset="1" stop-color="#00adef"/>
  </linearGradient>
 </defs>
 <g id="Document" fill="none" stroke="black" font-family="Times New Roman" font-size="16" transform="scale(1 -1)">
  <g id="Spread" transform="translate(0 -32.25)">
   <g id="Page background">
    <path d="M 0.001,32.249 L 0.001,0 L 213.748,0 L 213.748,32.249 L 0.001,32.249 Z" stroke-linejoin="bevel" stroke="none" stroke-width="0" marker-start="none" marker-end="none" stroke-miterlimit="79.8403193612775"/>
   </g>
   <g id="MouseOff">
    <g id="Group" stroke-linecap="round" stroke="none">
     <g id="Group_1" fill-rule="nonzero" stroke-linejoin="round" stroke-width="0.939" fill="#00adef" stroke-miterlimit="79.8403193612775">
      <g id="Group_2">
       <path d="M 37.989,20.677 L 46.411,20.677 C 48.315,20.677 49.995,20.331 51.451,19.64 C 52.908,18.948 54.039,17.96 54.844,16.674 C 55.65,15.388 56.053,13.875 56.053,12.134 C 56.053,10.392 55.65,8.879 54.844,7.593 C 54.039,6.308 52.908,5.319 51.451,4.627 C 49.995,3.936 48.315,3.59 46.411,3.59 L 37.989,3.59 L 37.989,20.677 Z M 46.166,8.081 C 47.403,8.081 48.392,8.435 49.132,9.143 C 49.873,9.851 50.243,10.848 50.243,12.134 C 50.243,13.419 49.873,14.416 49.132,15.124 C 48.392,15.832 47.403,16.186 46.166,16.186 L 43.75,16.186 L 43.75,8.081 L 46.166,8.081 Z" marker-start="none" marker-end="none"/>
       <path d="M 69.8,6.568 L 63.307,6.568 L 62.159,3.59 L 56.301,3.59 L 63.77,20.677 L 69.434,20.677 L 76.903,3.59 L 70.947,3.59 L 69.8,6.568 Z M 68.213,10.718 L 66.553,15.014 L 64.893,10.718 L 68.213,10.718 Z" marker-start="none" marker-end="none"/>
       <path d="M 77.834,20.677 L 83.595,20.677 L 83.595,3.59 L 77.834,3.59 L 77.834,20.677 Z" marker-start="none" marker-end="none"/>
       <path d="M 86.38,20.677 L 92.141,20.677 L 92.141,8.057 L 99.854,8.057 L 99.854,3.59 L 86.38,3.59 L 86.38,20.677 Z" marker-start="none" marker-end="none"/>
       <path d="M 111.601,9.79 L 111.601,3.59 L 105.84,3.59 L 105.84,9.863 L 99.395,20.677 L 105.474,20.677 L 108.964,14.77 L 112.479,20.677 L 118.045,20.677 L 111.601,9.79 Z" marker-start="none" marker-end="none"/>
       <path d="M 144.353,20.677 L 137.127,3.59 L 131.464,3.59 L 124.239,20.677 L 130.439,20.677 L 134.516,10.693 L 138.69,20.677 L 144.353,20.677 Z" marker-start="none" marker-end="none"/>
       <path d="M 159.491,7.935 L 159.491,3.59 L 145.284,3.59 L 145.284,20.677 L 159.173,20.677 L 159.173,16.332 L 150.947,16.332 L 150.947,14.331 L 158.173,14.331 L 158.173,10.181 L 150.947,10.181 L 150.947,7.935 L 159.491,7.935 Z" marker-start="none" marker-end="none"/>
       <path d="M 169.031,7.886 L 167.469,7.886 L 167.469,3.59 L 161.708,3.59 L 161.708,20.677 L 169.934,20.677 C 171.513,20.677 172.888,20.417 174.06,19.896 C 175.231,19.375 176.135,18.627 176.769,17.65 C 177.404,16.674 177.721,15.535 177.721,14.233 C 177.721,13.012 177.445,11.946 176.891,11.035 C 176.338,10.124 175.541,9.4 174.499,8.863 L 178.087,3.59 L 171.936,3.59 L 169.031,7.886 Z M 171.911,14.233 C 171.911,14.868 171.716,15.36 171.326,15.71 C 170.935,16.06 170.349,16.235 169.568,16.235 L 167.469,16.235 L 167.469,12.231 L 169.568,12.231 C 170.349,12.231 170.935,12.406 171.326,12.756 C 171.716,13.106 171.911,13.598 171.911,14.233 Z" marker-start="none" marker-end="none"/>
       <path d="M 186.267,3.199 C 184.851,3.199 183.472,3.358 182.129,3.675 C 180.787,3.993 179.684,4.42 178.822,4.957 L 180.677,9.156 C 181.491,8.684 182.402,8.305 183.411,8.02 C 184.42,7.736 185.388,7.593 186.316,7.593 C 187.113,7.593 187.683,7.671 188.025,7.825 C 188.366,7.98 188.537,8.212 188.537,8.521 C 188.537,8.879 188.313,9.147 187.866,9.326 C 187.418,9.505 186.682,9.701 185.657,9.912 C 184.339,10.189 183.24,10.486 182.361,10.803 C 181.483,11.121 180.718,11.641 180.067,12.365 C 179.416,13.09 179.09,14.07 179.09,15.307 C 179.09,16.381 179.391,17.357 179.994,18.236 C 180.596,19.115 181.495,19.807 182.691,20.311 C 183.887,20.816 185.339,21.068 187.048,21.068 C 188.22,21.068 189.371,20.942 190.502,20.689 C 191.633,20.437 192.63,20.067 193.493,19.579 L 191.759,15.405 C 190.083,16.251 188.497,16.674 186.999,16.674 C 185.518,16.674 184.778,16.316 184.778,15.6 C 184.778,15.258 184.998,15.002 185.437,14.831 C 185.876,14.66 186.601,14.477 187.61,14.282 C 188.912,14.038 190.01,13.757 190.905,13.44 C 191.8,13.122 192.577,12.606 193.236,11.889 C 193.895,11.173 194.225,10.197 194.225,8.96 C 194.225,7.886 193.924,6.914 193.322,6.043 C 192.72,5.173 191.82,4.481 190.624,3.968 C 189.428,3.456 187.976,3.199 186.267,3.199 Z" marker-start="none" marker-end="none"/>
       <path d="M 210.146,7.935 L 210.146,3.59 L 195.939,3.59 L 195.939,20.677 L 209.828,20.677 L 209.828,16.332 L 201.602,16.332 L 201.602,14.331 L 208.828,14.331 L 208.828,10.181 L 201.602,10.181 L 201.602,7.935 L 210.146,7.935 Z" marker-start="none" marker-end="none"/>
      </g>
     </g>
     <g id="Group_3" fill-rule="nonzero" stroke-linejoin="round" stroke-width="0.336" fill="#000000" stroke-miterlimit="79.8403193612775">
      <g id="Group_4">
       <path d="M 41.272,29.529 C 41.814,29.529 42.284,29.439 42.682,29.258 C 43.081,29.078 43.388,28.822 43.604,28.49 C 43.819,28.158 43.927,27.765 43.927,27.311 C 43.927,26.863 43.819,26.471 43.604,26.136 C 43.388,25.802 43.081,25.545 42.682,25.368 C 42.284,25.19 41.814,25.101 41.272,25.101 L 40.041,25.101 L 40.041,23.416 L 38.626,23.416 L 38.626,29.529 L 41.272,29.529 Z M 41.194,26.254 C 41.619,26.254 41.942,26.346 42.163,26.529 C 42.384,26.713 42.495,26.973 42.495,27.311 C 42.495,27.654 42.384,27.918 42.163,28.101 C 41.942,28.285 41.619,28.376 41.194,28.376 L 40.041,28.376 L 40.041,26.254 L 41.194,26.254 Z" marker-start="none" marker-end="none"/>
       <path d="M 50.731,23.311 C 50.097,23.311 49.525,23.448 49.015,23.722 C 48.506,23.995 48.107,24.372 47.819,24.853 C 47.531,25.333 47.387,25.873 47.387,26.472 C 47.387,27.072 47.531,27.612 47.819,28.092 C 48.107,28.573 48.506,28.95 49.015,29.223 C 49.525,29.497 50.097,29.634 50.731,29.634 C 51.366,29.634 51.937,29.497 52.443,29.223 C 52.95,28.95 53.348,28.573 53.64,28.092 C 53.931,27.612 54.076,27.072 54.076,26.472 C 54.076,25.873 53.931,25.333 53.64,24.853 C 53.348,24.372 52.95,23.995 52.443,23.722 C 51.937,23.448 51.366,23.311 50.731,23.311 Z M 50.731,24.516 C 51.092,24.516 51.418,24.599 51.71,24.765 C 52.001,24.931 52.229,25.163 52.395,25.459 C 52.561,25.756 52.644,26.094 52.644,26.472 C 52.644,26.851 52.561,27.189 52.395,27.486 C 52.229,27.782 52.001,28.014 51.71,28.18 C 51.418,28.346 51.092,28.429 50.731,28.429 C 50.371,28.429 50.045,28.346 49.753,28.18 C 49.462,28.014 49.234,27.782 49.068,27.486 C 48.902,27.189 48.819,26.851 48.819,26.472 C 48.819,26.094 48.902,25.756 49.068,25.459 C 49.234,25.163 49.462,24.931 49.753,24.765 C 50.045,24.599 50.371,24.516 50.731,24.516 Z" marker-start="none" marker-end="none"/>
       <path d="M 59.906,23.311 C 59.422,23.311 58.955,23.377 58.504,23.508 C 58.053,23.639 57.69,23.809 57.417,24.019 L 57.897,25.084 C 58.159,24.892 58.47,24.738 58.831,24.621 C 59.192,24.505 59.553,24.446 59.914,24.446 C 60.316,24.446 60.613,24.506 60.805,24.625 C 60.997,24.745 61.093,24.903 61.093,25.101 C 61.093,25.247 61.037,25.368 60.923,25.464 C 60.809,25.56 60.664,25.637 60.486,25.695 C 60.309,25.753 60.069,25.818 59.766,25.887 C 59.3,25.998 58.919,26.109 58.622,26.219 C 58.325,26.33 58.07,26.507 57.858,26.752 C 57.645,26.996 57.539,27.323 57.539,27.73 C 57.539,28.085 57.635,28.407 57.827,28.695 C 58.019,28.983 58.309,29.212 58.696,29.381 C 59.083,29.549 59.556,29.634 60.115,29.634 C 60.505,29.634 60.887,29.587 61.259,29.494 C 61.632,29.401 61.958,29.267 62.237,29.092 L 61.801,28.018 C 61.236,28.338 60.671,28.499 60.106,28.499 C 59.711,28.499 59.418,28.435 59.229,28.306 C 59.04,28.178 58.945,28.01 58.945,27.8 C 58.945,27.59 59.054,27.435 59.272,27.333 C 59.491,27.231 59.824,27.13 60.272,27.031 C 60.738,26.921 61.119,26.81 61.416,26.7 C 61.713,26.589 61.968,26.414 62.181,26.176 C 62.393,25.937 62.499,25.614 62.499,25.206 C 62.499,24.857 62.402,24.538 62.207,24.25 C 62.012,23.962 61.719,23.733 61.329,23.564 C 60.939,23.396 60.465,23.311 59.906,23.311 Z" marker-start="none" marker-end="none"/>
       <path d="M 66.223,29.529 L 67.638,29.529 L 67.638,23.416 L 66.223,23.416 L 66.223,29.529 Z" marker-start="none" marker-end="none"/>
       <path d="M 73.108,28.376 L 71.152,28.376 L 71.152,29.529 L 76.479,29.529 L 76.479,28.376 L 74.523,28.376 L 74.523,23.416 L 73.108,23.416 L 73.108,28.376 Z" marker-start="none" marker-end="none"/>
       <path d="M 79.993,29.529 L 81.408,29.529 L 81.408,23.416 L 79.993,23.416 L 79.993,29.529 Z" marker-start="none" marker-end="none"/>
       <path d="M 91.489,29.529 L 88.843,23.416 L 87.446,23.416 L 84.809,29.529 L 86.337,29.529 L 88.197,25.163 L 90.083,29.529 L 91.489,29.529 Z" marker-start="none" marker-end="none"/>
       <path d="M 99.614,24.551 L 99.614,23.416 L 94.881,23.416 L 94.881,29.529 L 99.501,29.529 L 99.501,28.394 L 96.287,28.394 L 96.287,27.066 L 99.125,27.066 L 99.125,25.966 L 96.287,25.966 L 96.287,24.551 L 99.614,24.551 Z" marker-start="none" marker-end="none"/>
       <path d="M 103.921,25.04 C 104.165,25.04 104.366,24.963 104.523,24.809 C 104.681,24.655 104.759,24.452 104.759,24.202 C 104.759,24.085 104.745,23.969 104.716,23.853 C 104.687,23.736 104.622,23.561 104.523,23.329 L 104.026,22.071 L 103.161,22.071 L 103.545,23.46 C 103.4,23.518 103.285,23.612 103.2,23.743 C 103.116,23.874 103.074,24.027 103.074,24.202 C 103.074,24.452 103.154,24.655 103.314,24.809 C 103.474,24.963 103.676,25.04 103.921,25.04 Z" marker-start="none" marker-end="none"/>
       <path d="M 118.495,24.551 L 118.495,23.416 L 113.762,23.416 L 113.762,29.529 L 118.382,29.529 L 118.382,28.394 L 115.168,28.394 L 115.168,27.066 L 118.006,27.066 L 118.006,25.966 L 115.168,25.966 L 115.168,24.551 L 118.495,24.551 Z" marker-start="none" marker-end="none"/>
       <path d="M 127.981,29.529 L 127.981,23.416 L 126.819,23.416 L 123.771,27.127 L 123.771,23.416 L 122.374,23.416 L 122.374,29.529 L 123.544,29.529 L 126.583,25.818 L 126.583,29.529 L 127.981,29.529 Z" marker-start="none" marker-end="none"/>
       <path d="M 135.11,23.311 C 134.487,23.311 133.923,23.447 133.42,23.717 C 132.916,23.988 132.52,24.363 132.232,24.844 C 131.944,25.324 131.8,25.867 131.8,26.472 C 131.8,27.078 131.944,27.621 132.232,28.101 C 132.52,28.582 132.916,28.957 133.42,29.228 C 133.923,29.498 134.49,29.634 135.118,29.634 C 135.648,29.634 136.127,29.541 136.555,29.354 C 136.983,29.168 137.342,28.9 137.633,28.551 L 136.725,27.713 C 136.312,28.19 135.799,28.429 135.188,28.429 C 134.81,28.429 134.472,28.346 134.175,28.18 C 133.878,28.014 133.647,27.782 133.481,27.486 C 133.315,27.189 133.232,26.851 133.232,26.472 C 133.232,26.094 133.315,25.756 133.481,25.459 C 133.647,25.163 133.878,24.931 134.175,24.765 C 134.472,24.599 134.81,24.516 135.188,24.516 C 135.799,24.516 136.312,24.758 136.725,25.241 L 137.633,24.403 C 137.342,24.048 136.981,23.777 136.551,23.591 C 136.12,23.404 135.639,23.311 135.11,23.311 Z" marker-start="none" marker-end="none"/>
       <path d="M 144.298,23.311 C 143.664,23.311 143.092,23.448 142.582,23.722 C 142.073,23.995 141.674,24.372 141.386,24.853 C 141.098,25.333 140.954,25.873 140.954,26.472 C 140.954,27.072 141.098,27.612 141.386,28.092 C 141.674,28.573 142.073,28.95 142.582,29.223 C 143.092,29.497 143.664,29.634 144.298,29.634 C 144.933,29.634 145.504,29.497 146.01,29.223 C 146.517,28.95 146.915,28.573 147.207,28.092 C 147.498,27.612 147.643,27.072 147.643,26.472 C 147.643,25.873 147.498,25.333 147.207,24.853 C 146.915,24.372 146.517,23.995 146.01,23.722 C 145.504,23.448 144.933,23.311 144.298,23.311 Z M 144.298,24.516 C 144.659,24.516 144.985,24.599 145.277,24.765 C 145.568,24.931 145.796,25.163 145.962,25.459 C 146.128,25.756 146.211,26.094 146.211,26.472 C 146.211,26.851 146.128,27.189 145.962,27.486 C 145.796,27.782 145.568,28.014 145.277,28.18 C 144.985,28.346 144.659,28.429 144.298,28.429 C 143.938,28.429 143.612,28.346 143.32,28.18 C 143.029,28.014 142.801,27.782 142.635,27.486 C 142.469,27.189 142.386,26.851 142.386,26.472 C 142.386,26.094 142.469,25.756 142.635,25.459 C 142.801,25.163 143.029,24.931 143.32,24.765 C 143.612,24.599 143.938,24.516 144.298,24.516 Z" marker-start="none" marker-end="none"/>
       <path d="M 154.18,23.311 C 153.307,23.311 152.627,23.553 152.141,24.036 C 151.655,24.519 151.412,25.209 151.412,26.106 L 151.412,29.529 L 152.826,29.529 L 152.826,26.158 C 152.826,25.064 153.28,24.516 154.189,24.516 C 154.631,24.516 154.969,24.649 155.202,24.914 C 155.435,25.179 155.551,25.593 155.551,26.158 L 155.551,29.529 L 156.948,29.529 L 156.948,26.106 C 156.948,25.209 156.705,24.519 156.219,24.036 C 155.733,23.553 155.053,23.311 154.18,23.311 Z" marker-start="none" marker-end="none"/>
       <path d="M 164.994,23.416 L 163.815,25.119 L 163.745,25.119 L 162.514,25.119 L 162.514,23.416 L 161.099,23.416 L 161.099,29.529 L 163.745,29.529 C 164.287,29.529 164.757,29.439 165.155,29.258 C 165.554,29.078 165.861,28.822 166.077,28.49 C 166.292,28.158 166.4,27.765 166.4,27.311 C 166.4,26.857 166.291,26.465 166.072,26.136 C 165.854,25.807 165.544,25.556 165.142,25.381 L 166.513,23.416 L 164.994,23.416 Z M 164.968,27.311 C 164.968,27.654 164.857,27.918 164.636,28.101 C 164.415,28.285 164.092,28.376 163.667,28.376 L 162.514,28.376 L 162.514,26.245 L 163.667,26.245 C 164.092,26.245 164.415,26.339 164.636,26.525 C 164.857,26.711 164.968,26.973 164.968,27.311 Z" marker-start="none" marker-end="none"/>
       <path d="M 174.296,24.726 L 171.458,24.726 L 170.916,23.416 L 169.467,23.416 L 172.191,29.529 L 173.589,29.529 L 176.322,23.416 L 174.837,23.416 L 174.296,24.726 Z M 173.851,25.8 L 172.881,28.141 L 171.912,25.8 L 173.851,25.8 Z" marker-start="none" marker-end="none"/>
       <path d="M 183.844,26.569 L 185.136,26.569 L 185.136,24.088 C 184.804,23.838 184.42,23.646 183.983,23.512 C 183.547,23.378 183.107,23.311 182.665,23.311 C 182.03,23.311 181.46,23.447 180.953,23.717 C 180.447,23.988 180.049,24.363 179.761,24.844 C 179.473,25.324 179.329,25.867 179.329,26.472 C 179.329,27.078 179.473,27.621 179.761,28.101 C 180.049,28.582 180.449,28.957 180.962,29.228 C 181.474,29.498 182.051,29.634 182.691,29.634 C 183.227,29.634 183.713,29.544 184.149,29.363 C 184.586,29.183 184.953,28.921 185.25,28.577 L 184.342,27.739 C 183.905,28.199 183.378,28.429 182.761,28.429 C 182.371,28.429 182.024,28.347 181.722,28.184 C 181.419,28.021 181.183,27.791 181.014,27.494 C 180.845,27.197 180.761,26.857 180.761,26.472 C 180.761,26.094 180.845,25.756 181.014,25.459 C 181.183,25.163 181.417,24.931 181.717,24.765 C 182.017,24.599 182.359,24.516 182.743,24.516 C 183.151,24.516 183.518,24.604 183.844,24.778 L 183.844,26.569 Z" marker-start="none" marker-end="none"/>
       <path d="M 189.199,29.529 L 190.614,29.529 L 190.614,23.416 L 189.199,23.416 L 189.199,29.529 Z" marker-start="none" marker-end="none"/>
       <path d="M 200.425,29.529 L 200.425,23.416 L 199.263,23.416 L 196.215,27.127 L 196.215,23.416 L 194.818,23.416 L 194.818,29.529 L 195.988,29.529 L 199.027,25.818 L 199.027,29.529 L 200.425,29.529 Z" marker-start="none" marker-end="none"/>
       <path d="M 208.759,26.569 L 210.051,26.569 L 210.051,24.088 C 209.719,23.838 209.335,23.646 208.898,23.512 C 208.462,23.378 208.022,23.311 207.58,23.311 C 206.945,23.311 206.375,23.447 205.868,23.717 C 205.362,23.988 204.964,24.363 204.676,24.844 C 204.388,25.324 204.244,25.867 204.244,26.472 C 204.244,27.078 204.388,27.621 204.676,28.101 C 204.964,28.582 205.364,28.957 205.877,29.228 C 206.389,29.498 206.966,29.634 207.606,29.634 C 208.142,29.634 208.628,29.544 209.064,29.363 C 209.501,29.183 209.868,28.921 210.165,28.577 L 209.257,27.739 C 208.82,28.199 208.293,28.429 207.676,28.429 C 207.286,28.429 206.939,28.347 206.637,28.184 C 206.334,28.021 206.098,27.791 205.929,27.494 C 205.76,27.197 205.676,26.857 205.676,26.472 C 205.676,26.094 205.76,25.756 205.929,25.459 C 206.098,25.163 206.332,24.931 206.632,24.765 C 206.932,24.599 207.274,24.516 207.658,24.516 C 208.066,24.516 208.433,24.604 208.759,24.778 L 208.759,26.569 Z" marker-start="none" marker-end="none"/>
      </g>
     </g>
     <path d="M 4.814,27.436 C 11.033,33.655 21.128,33.655 27.347,27.436 C 33.566,21.217 33.566,11.122 27.347,4.903 C 21.128,-1.316 11.033,-1.316 4.814,4.903 C -1.405,11.122 -1.405,21.217 4.814,27.436 Z" fill="#00adef" stroke-linejoin="miter" stroke-width="0.441" marker-start="none" marker-end="none" stroke-miterlimit="79.8403193612775"/>
     <g id="Group_5" stroke-linejoin="miter">
      <path d="M 8.353,6.393 L 9.383,5.339 L 23.809,5.339 L 23.809,23.975 L 23.035,24.937 L 23.035,6.711 L 8.353,6.393 Z" stroke-width="0.441" fill="#0194cc" marker-start="none" marker-end="none" stroke-miterlimit="79.8403193612775"/>
      <path d="M 8.354,24.938 L 8.354,6.394 L 23.035,6.394 L 23.035,24.938 L 8.354,24.938 Z" fill="#0074a0" stroke-width="0.113" marker-start="none" marker-end="none" stroke-miterlimit="79.8403193612775"/>
      <path d="M 18.862,28.184 L 18.862,24.938 L 21.338,24.938 L 21.338,28.184 L 20.099,26.638 L 18.862,28.184 Z" fill="#ffffff" stroke-width="0.113" marker-start="none" marker-end="none" stroke-miterlimit="79.8403193612775"/>
      <path d="M 8.353,24.938 L 8.353,6.393 L 9.983,6.393 L 9.983,24.938 L 8.353,24.938 Z" fill="#003b52" stroke-width="0.113" marker-start="none" marker-end="none" stroke-miterlimit="79.8403193612775"/>
      <path d="M 15.394,21.57 L 15.394,12.553 L 16.595,12.553 L 16.595,21.57 L 15.394,21.57 Z" fill="#ffffff" stroke-width="0.113" marker-start="none" marker-end="none" stroke-miterlimit="79.8403193612775"/>
      <path d="M 13.215,17.965 L 18.776,17.965 L 18.776,19.166 L 13.215,19.166 L 13.215,17.965 Z" fill="#ffffff" stroke-width="0.113" marker-start="none" marker-end="none" stroke-miterlimit="79.8403193612775"/>
     </g>
    </g>
   </g>
   <g id="Layer_2"/>
  </g>
 </g>
</svg>
